<?xml version="1.0" encoding="UTF-8"?>
<svg id="Layer_2" data-name="Layer 2" xmlns="http://www.w3.org/2000/svg" viewBox="0 0 953.72 1055.37">
  <defs>
    <style>
      .cls-1 {
        stroke: #3884af;
        stroke-miterlimit: 10;
        stroke-width: 6px;
      }

      .cls-1, .cls-2 {
        fill: #3884af;
      }

      .cls-2, .cls-3, .cls-4 {
        stroke-width: 0px;
      }

      .cls-3 {
        fill: #8dc3db;
      }

      .cls-4 {
        fill: #fff;
      }
    </style>
  </defs>
  <polygon class="cls-2" points="198.27 426.67 277.33 238.43 307.45 263.53 362.67 120.47 426.67 79.06 494.45 0 601.1 213.33 631.21 173.18 720.31 278.59 786.82 426.67 198.27 426.67"/>
  <polygon class="cls-4" points="209.57 426.67 276.08 267.29 330.04 328.78 342.59 198.65 371.45 128.38 436.71 85.71 488.03 31.37 509.49 155.61 496.94 254.74 587.29 426.67 209.57 426.67"/>
  <polygon class="cls-4" points="603.61 225.88 629.96 188.61 629.96 276.08 603.61 225.88"/>
  <polygon class="cls-3" points="786.82 426.67 198.27 426.67 214.59 519.53 247.22 623.04 272.31 581.02 321.25 789.33 380.23 884.7 394.04 849.57 453.02 1030.27 470.59 998.9 483.14 1055.37 558.43 901.02 573.49 941.17 683.92 765.49 698.98 682.67 720.31 741.02 786.82 426.67"/>
  <line class="cls-1" y1="426.67" x2="953.72" y2="426.67"/>
</svg>